<svg id="Group_9" data-name="Group 9" xmlns="http://www.w3.org/2000/svg" xmlns:xlink="http://www.w3.org/1999/xlink" width="23.281" height="31.001" viewBox="0 0 23.281 31.001">
  <defs>
    <clipPath id="clip-path">
      <rect id="Rectangle_6" data-name="Rectangle 6" width="23.281" height="31.001" fill="none"/>
    </clipPath>
  </defs>
  <g id="Group_8" data-name="Group 8" clip-path="url(#clip-path)">
    <path id="Path_15" data-name="Path 15" d="M3.291,23.174a.741.741,0,0,1,1.359-.593,7.63,7.63,0,0,0,6.991,4.293.743.743,0,0,1,0,1.486,9.125,9.125,0,0,1-8.35-5.187ZM11.641,0C7.51,5.626,0,13.451,0,20.058,0,26.267,5.384,31,11.641,31s11.641-4.734,11.641-10.943c0-6.606-7.51-14.432-11.641-20.058M2.952,17.953a.74.74,0,0,1,1.428.388c-.167.611-.168,1.557-1.027,1.419C2.446,19.613,2.786,18.567,2.952,17.953Z" fill="#0078f4" fill-rule="evenodd"/>
  </g>
</svg>
