<svg id="Group_11" data-name="Group 11" xmlns="http://www.w3.org/2000/svg" xmlns:xlink="http://www.w3.org/1999/xlink" width="32.029" height="32.029" viewBox="0 0 32.029 32.029">
  <defs>
    <clipPath id="clip-path">
      <rect id="Rectangle_7" data-name="Rectangle 7" width="32.029" height="32.029" fill="none"/>
    </clipPath>
  </defs>
  <g id="Group_10" data-name="Group 10" clip-path="url(#clip-path)">
    <path id="Path_16" data-name="Path 16" d="M19.488,7.337H12.541a.254.254,0,0,1-.254-.254V5.745a.252.252,0,0,1,.254-.252h6.947a.253.253,0,0,1,.254.252V7.083a.253.253,0,0,1-.254.254m-1.1,2.3V8.443H13.64V9.636a.553.553,0,0,1-.176.4l-2.4,2.235a2.543,2.543,0,0,0-.481,1.5v1.145a1.12,1.12,0,0,0,.218.667,1.688,1.688,0,0,1,0,2.03,1.12,1.12,0,0,0-.216.666v1.69a1.127,1.127,0,0,0,.217.668,1.688,1.688,0,0,1,0,2.028,1.119,1.119,0,0,0-.217.667v1.67A1.131,1.131,0,0,0,11.71,26.14h8.615a1.131,1.131,0,0,0,1.129-1.129v-1.67a1.121,1.121,0,0,0-.216-.666,1.69,1.69,0,0,1,0-2.031,1.125,1.125,0,0,0,.216-.667v-1.69a1.121,1.121,0,0,0-.216-.666,1.69,1.69,0,0,1,0-2.031,1.12,1.12,0,0,0,.216-.666V13.779a2.539,2.539,0,0,0-.481-1.5l-2.4-2.235a.553.553,0,0,1-.176-.4Zm13.638,6.379A16.014,16.014,0,1,1,16.014,0,16.032,16.032,0,0,1,32.029,16.015m-1.844,0a14.162,14.162,0,0,0-3.109-8.844.554.554,0,0,0-.4-.206.562.562,0,0,0-.421.161l-4.436,4.436a.458.458,0,0,0-.056-.062l-1.289-1.2,4.482-4.48A.553.553,0,0,0,24.912,5a14.016,14.016,0,0,0-8.9-3.155A14.165,14.165,0,0,0,4.99,24.911a.557.557,0,0,0,.4.2H5.42a.554.554,0,0,0,.392-.161l3.926-3.923A2.207,2.207,0,0,0,9.9,21.3a.592.592,0,0,1,0,.723,2.217,2.217,0,0,0-.432,1.32v.566L7.124,26.253a.552.552,0,0,0,.045.821A14.16,14.16,0,0,0,30.182,16.012Z" transform="translate(0 -0.001)" fill="#0078f4"/>
  </g>
</svg>
