<svg id="Group_14" data-name="Group 14" xmlns="http://www.w3.org/2000/svg" xmlns:xlink="http://www.w3.org/1999/xlink" width="38.071" height="31.762" viewBox="0 0 38.071 31.762">
  <defs>
    <clipPath id="clip-path">
      <rect id="Rectangle_8" data-name="Rectangle 8" width="38.071" height="31.762" fill="none"/>
    </clipPath>
  </defs>
  <g id="Group_13" data-name="Group 13" clip-path="url(#clip-path)">
    <path id="Path_17" data-name="Path 17" d="M8.106,16.78a.891.891,0,1,1-1.542.892l-1.6-2.736q-.03.462-.03.945A14.1,14.1,0,0,0,30.268,24.4a.888.888,0,0,1,1.414,1.074,15.963,15.963,0,0,1-5.6,4.635A15.883,15.883,0,0,1,3.151,15.88c0-.241.006-.483.018-.726L1.557,17A.888.888,0,0,1,.22,15.827l3.553-4.061a.892.892,0,0,1,1.471.106Zm21.859-1.8a.891.891,0,0,1,1.542-.892l1.6,2.736q.03-.462.03-.945A14.1,14.1,0,0,0,7.8,7.36.888.888,0,0,1,6.388,6.286a15.965,15.965,0,0,1,5.6-4.635A15.883,15.883,0,0,1,34.921,15.883c0,.241-.006.483-.018.725l1.612-1.842a.888.888,0,1,1,1.337,1.17L34.3,20a.892.892,0,0,1-1.471-.106ZM24.184,22.8A7.282,7.282,0,0,1,11.753,17.65a10.253,10.253,0,0,1,2.181-6.071,24.833,24.833,0,0,1,4.532-4.54.89.89,0,0,1,1.128-.01,24.878,24.878,0,0,1,4.544,4.548,10.249,10.249,0,0,1,2.181,6.071A7.269,7.269,0,0,1,24.186,22.8Z" transform="translate(0 -0.001)" fill="#0078f4"/>
  </g>
</svg>
