<svg xmlns="http://www.w3.org/2000/svg" xmlns:xlink="http://www.w3.org/1999/xlink" width="95.463" height="95.464" viewBox="0 0 95.463 95.464">
  <defs>
    <clipPath id="clip-path">
      <rect id="Rectangle_17" data-name="Rectangle 17" width="95.463" height="95.464" fill="#fff"/>
    </clipPath>
  </defs>
  <g id="Group_27" data-name="Group 27" clip-path="url(#clip-path)">
    <path id="Path_27" data-name="Path 27" d="M81.483,13.981A47.747,47.747,0,0,0,6.177,71.258a48.008,48.008,0,0,0,7.8,10.225q1.464,1.464,3.029,2.782A47.732,47.732,0,0,0,95.463,47.732a47.418,47.418,0,0,0-13.98-33.751M78.228,78.228a43.142,43.142,0,0,1-56.583,3.856q-1.51-1.151-2.931-2.445-.753-.686-1.478-1.412a43.437,43.437,0,0,1-5.816-7.2,42.144,42.144,0,0,1-2.259-3.95q-.38-.755-.729-1.524A43.015,43.015,0,0,1,4.6,47.732q0-.953.041-1.9A43.081,43.081,0,0,1,6.416,35.295q.354-1.19.78-2.354A43.139,43.139,0,1,1,78.228,78.228" fill="#fff"/>
    <path id="Path_28" data-name="Path 28" d="M270.267,195.352H241.53a9.771,9.771,0,0,1,0-19.541,10.061,10.061,0,0,1,2.3.287,9.773,9.773,0,0,1,18.392-4.311,5.778,5.778,0,0,1,6.093,4.2,10.792,10.792,0,0,1,1.953-.173,9.771,9.771,0,1,1,0,19.541ZM241.53,178.11a7.472,7.472,0,0,0,0,14.943h28.737a7.472,7.472,0,0,0,0-14.943,7.254,7.254,0,0,0-2.472.46,1.292,1.292,0,0,1-1.035-.114,1.483,1.483,0,0,1-.516-.921,3.456,3.456,0,0,0-4.369-3.275,1.116,1.116,0,0,1-1.379-.689,7.457,7.457,0,0,0-14.369,2.815,8.828,8.828,0,0,0,.114,1.149,1.146,1.146,0,0,1-.46,1.091,1.187,1.187,0,0,1-1.15.114A8.1,8.1,0,0,0,241.53,178.11Z" transform="translate(-196.194 -141.047)" fill="#fff"/>
    <path id="Path_29" data-name="Path 29" d="M267.3,192.927H238.567a10.308,10.308,0,1,1,0-20.615,9.842,9.842,0,0,1,1.8.172,10.311,10.311,0,0,1,19.194-4.219,6.309,6.309,0,0,1,6.163,4.153,11.48,11.48,0,0,1,1.579-.106,10.308,10.308,0,0,1,0,20.615m-28.738-19.541a9.234,9.234,0,1,0,0,18.467H267.3a9.234,9.234,0,1,0,0-18.467,10.319,10.319,0,0,0-1.858.164l-.487.088-.128-.478a5.212,5.212,0,0,0-5.52-3.8l-.361.037-.169-.321a9.236,9.236,0,0,0-17.38,4.078l-.021.653-.637-.147a9.493,9.493,0,0,0-2.178-.274M267.3,190.628H238.567a8.009,8.009,0,0,1,0-16.018,8.66,8.66,0,0,1,3.307.671l.036.016a.663.663,0,0,0,.613-.082.614.614,0,0,0,.225-.566l-.008-.053a8.818,8.818,0,0,1-.113-1.173,7.994,7.994,0,0,1,15.4-3.018.582.582,0,0,0,.727.378,3.906,3.906,0,0,1,3.4.608,4.1,4.1,0,0,1,1.655,3.126.948.948,0,0,0,.288.532.765.765,0,0,0,.559.048,7.79,7.79,0,0,1,2.641-.488,8.009,8.009,0,0,1,0,16.018m-28.737-14.943a6.935,6.935,0,1,0,0,13.869H267.3a6.935,6.935,0,0,0,0-13.869,6.674,6.674,0,0,0-2.292.429,1.837,1.837,0,0,1-1.492-.16l-.058-.04a2.028,2.028,0,0,1-.712-1.255l-.007-.072a3.014,3.014,0,0,0-1.219-2.331,2.8,2.8,0,0,0-2.467-.442,1.647,1.647,0,0,1-2.023-1.007,6.92,6.92,0,0,0-13.333,2.617,7.989,7.989,0,0,0,.1,1.024l.007.051a1.671,1.671,0,0,1-.7,1.613,1.724,1.724,0,0,1-1.666.157,7.587,7.587,0,0,0-2.883-.584" transform="translate(-193.232 -138.085)" fill="#fff"/>
    <path id="Path_30" data-name="Path 30" d="M222.769,443.9a3.381,3.381,0,1,1,3.381-3.381,3.385,3.385,0,0,1-3.381,3.381m0-5.227a1.846,1.846,0,1,0,1.846,1.846,1.848,1.848,0,0,0-1.846-1.846" transform="translate(-185.722 -370.057)" fill="#fff"/>
    <path id="Path_31" data-name="Path 31" d="M259.424,384.607a5.157,5.157,0,1,1,5.157-5.157,5.162,5.162,0,0,1-5.157,5.157m0-8.486a3.33,3.33,0,1,0,3.33,3.33,3.333,3.333,0,0,0-3.33-3.33" transform="translate(-215.249 -316.857)" fill="#fff"/>
    <rect id="Rectangle_15" data-name="Rectangle 15" width="1.995" height="4.395" transform="matrix(0.014, -1, 1, 0.014, 27.234, 76.713)" fill="#fff"/>
    <rect id="Rectangle_16" data-name="Rectangle 16" width="4.604" height="90.242" transform="translate(14.199 17.454) rotate(-45)" fill="#fff"/>
    <path id="Path_32" data-name="Path 32" d="M49.4,423.04a9.743,9.743,0,0,0-6.167,2.159,9.63,9.63,0,0,0-2.985,4.182,48.009,48.009,0,0,0,7.8,10.225q1.464,1.464,3.029,2.782A9.747,9.747,0,0,0,49.4,423.04m.379,15.57a5.754,5.754,0,0,1-5.7-5.7,5.71,5.71,0,1,1,5.7,5.7" transform="translate(-34.073 -358.122)" fill="#fff"/>
    <path id="Path_33" data-name="Path 33" d="M40.428,239.308c.887-14.558-6.582-24.053-8.86-24.432h-.253c-2.844-.474-8.112-1.237-14.374-1.846q-.421,1.2-.775,2.435a89.748,89.748,0,0,1,10.591,1.056c.887.634,3.417,6.709,3.417,8.1-.767.109-4.01.6-15.748,1.8q-.03.81-.029,1.63a45.239,45.239,0,0,0,4.421,19.572A11.5,11.5,0,0,1,39.162,255a6.2,6.2,0,0,1-.126,1.519l-.127.506h1.14c.379,0,.76,0,2.024-5.062.634-2.659,1.14-5.443,1.266-6.583a6.542,6.542,0,0,0-2.911-6.075m-8.354-10.634c1.266-1.518,4.556-2.4,5.822-2.658a27.288,27.288,0,0,1,1.393,5.949,8.294,8.294,0,0,1-7.215-3.292" transform="translate(-12.188 -180.34)" fill="#fff"/>
  </g>
</svg>
