<svg id="Group_19" data-name="Group 19" xmlns="http://www.w3.org/2000/svg" xmlns:xlink="http://www.w3.org/1999/xlink" width="95.055" height="95.055" viewBox="0 0 95.055 95.055">
  <defs>
    <clipPath id="clip-path">
      <rect id="Rectangle_7" data-name="Rectangle 7" width="95.055" height="95.055" fill="#fff"/>
    </clipPath>
  </defs>
  <g id="Group_10" data-name="Group 10" clip-path="url(#clip-path)">
    <path id="Path_16" data-name="Path 16" d="M57.837,21.772H37.22a.754.754,0,0,1-.753-.752V17.048a.747.747,0,0,1,.753-.748H57.837a.75.75,0,0,1,.752.748V21.02a.751.751,0,0,1-.752.752M54.578,28.6v-3.54h-14.1V28.6a1.64,1.64,0,0,1-.522,1.2l-7.136,6.632A7.547,7.547,0,0,0,31.4,40.893v3.4a3.324,3.324,0,0,0,.646,1.979,5.009,5.009,0,0,1,0,6.024,3.324,3.324,0,0,0-.641,1.975v5.015a3.346,3.346,0,0,0,.645,1.984,5.008,5.008,0,0,1,0,6.02,3.322,3.322,0,0,0-.645,1.979v4.956a3.357,3.357,0,0,0,3.352,3.352H60.32a3.358,3.358,0,0,0,3.352-3.352V69.269a3.326,3.326,0,0,0-.641-1.975,5.015,5.015,0,0,1,0-6.029,3.339,3.339,0,0,0,.641-1.979V54.271a3.327,3.327,0,0,0-.641-1.975,5.015,5.015,0,0,1,0-6.029,3.325,3.325,0,0,0,.641-1.975v-3.4a7.535,7.535,0,0,0-1.428-4.464L55.108,29.8a1.64,1.64,0,0,1-.522-1.2ZM95.055,47.528A47.527,47.527,0,1,1,47.528,0,47.581,47.581,0,0,1,95.055,47.528m-5.473,0a42.03,42.03,0,0,0-9.227-26.247,1.644,1.644,0,0,0-1.188-.611,1.669,1.669,0,0,0-1.248.479L64.754,34.312a1.36,1.36,0,0,0-.167-.184l-3.827-3.557,13.3-13.3a1.641,1.641,0,0,0-.128-2.437A41.6,41.6,0,0,0,47.528,5.475,42.039,42.039,0,0,0,14.811,73.931,1.655,1.655,0,0,0,16,74.538h.085a1.643,1.643,0,0,0,1.163-.479L28.9,62.416a6.55,6.55,0,0,0,.487.791,1.758,1.758,0,0,1,0,2.146A6.579,6.579,0,0,0,28.1,69.27v1.68l-6.961,6.961a1.637,1.637,0,0,0,.133,2.437,42.024,42.024,0,0,0,68.3-32.828Z" transform="translate(0 -0.001)" fill="#fff"/>
  </g>
</svg>
