<svg id="Group_18" data-name="Group 18" xmlns="http://www.w3.org/2000/svg" xmlns:xlink="http://www.w3.org/1999/xlink" width="114.306" height="95.364" viewBox="0 0 114.306 95.364">
  <defs>
    <clipPath id="clip-path">
      <rect id="Rectangle_8" data-name="Rectangle 8" width="114.306" height="95.363" fill="#fff"/>
    </clipPath>
  </defs>
  <g id="Group_13" data-name="Group 13" clip-path="url(#clip-path)">
    <path id="Path_17" data-name="Path 17" d="M24.338,50.38a2.675,2.675,0,1,1-4.63,2.68l-4.794-8.216q-.089,1.387-.091,2.839A42.328,42.328,0,0,0,90.88,73.268a2.667,2.667,0,0,1,4.247,3.226A47.93,47.93,0,0,1,78.312,90.411,47.688,47.688,0,0,1,9.459,47.678c0-.725.018-1.449.055-2.178L4.675,51.032A2.667,2.667,0,0,1,.66,47.519L11.328,35.325a2.679,2.679,0,0,1,4.415.319Zm65.631-5.4a2.674,2.674,0,0,1,4.63-2.679l4.794,8.216q.089-1.387.091-2.839A42.328,42.328,0,0,0,23.427,22.1,2.667,2.667,0,0,1,19.18,18.87,47.935,47.935,0,0,1,35.995,4.954a47.688,47.688,0,0,1,68.853,42.734c0,.724-.018,1.449-.055,2.178l4.839-5.532a2.667,2.667,0,1,1,4.015,3.513L102.979,60.041a2.679,2.679,0,0,1-4.415-.319ZM72.612,68.452A21.863,21.863,0,0,1,35.288,52.991c0-6.8,2.629-12.846,6.548-18.227a74.56,74.56,0,0,1,13.606-13.63,2.671,2.671,0,0,1,3.386-.031A74.7,74.7,0,0,1,72.47,34.759c3.919,5.377,6.548,11.428,6.548,18.227a21.826,21.826,0,0,1-6.4,15.461Z" transform="translate(0 -0.001)" fill="#fff"/>
  </g>
</svg>
