<svg id="Group_21" data-name="Group 21" xmlns="http://www.w3.org/2000/svg" xmlns:xlink="http://www.w3.org/1999/xlink" width="93.188" height="95.055" viewBox="0 0 93.188 95.055">
  <defs>
    <clipPath id="clip-path">
      <rect id="Rectangle_11" data-name="Rectangle 11" width="93.188" height="95.055" fill="#fff"/>
    </clipPath>
  </defs>
  <g id="Group_20" data-name="Group 20" clip-path="url(#clip-path)">
    <path id="Path_18" data-name="Path 18" d="M77.2,57.384c-4.118,5.323-7.7,9.841-11.446,15.167A111.5,111.5,0,0,0,57.971,86a45.731,45.731,0,0,0-3.239,6.866,1.649,1.649,0,0,0,3.115,1.085,51.443,51.443,0,0,1,3.841-7.819C77.652,82.66,90.5,73.075,92.882,56.029h0A37.734,37.734,0,0,0,90.9,38.337a47.3,47.3,0,0,0-5.079-9.932c-.388.037-.6.413-.751.776C81.51,37.941,81.7,39.789,72.986,46.226c-5.917,4.369-12.7,6.127-17.011,11.347-7.035,8.529-6.833,18.728-1.5,28.02C62.663,71.424,65.126,66.836,77.2,57.378ZM22.412,68.145c-2.55-6.23-4.675-11.591-7.41-17.494v0A112.059,112.059,0,0,0,7.244,37.183,46.053,46.053,0,0,0,2.92,30.945a1.645,1.645,0,0,0-2.348-.2A1.624,1.624,0,0,0,0,31.889,1.645,1.645,0,0,0,.424,33.1a52.212,52.212,0,0,1,4.848,7.237C.3,55.9,2.177,71.823,15.744,82.4a37.668,37.668,0,0,0,16.319,7.13A46.824,46.824,0,0,0,43.2,90.1a1.047,1.047,0,0,0-.3-1.036c-5.81-7.464-7.5-8.223-8.719-18.989-.825-7.307,1.048-14.066-1.324-20.408C28.993,39.3,20.06,34.381,9.34,34.357c8.182,14.173,10.922,18.6,13.072,33.789ZM40.484,15.471c14.227,5.731,19.434,5.57,35.8,5.574C70.907,30.313,62.176,35.591,51.27,33.762c-6.676-1.118-11.6-6.127-18.336-9.057-9.927-4.333-11.437-3.243-20.808-1.948a1.057,1.057,0,0,1-1.048-.26,46.991,46.991,0,0,1,6.065-9.362A37.645,37.645,0,0,1,31.477,2.572c15.952-6.457,30.674-.124,41.665,11.966h0a52,52,0,0,0,8.7-.582,1.648,1.648,0,1,1,.615,3.239,46.44,46.44,0,0,1-7.563.627,111.609,111.609,0,0,1-15.539-.017c-6.486-.586-12.189-1.432-18.864-2.335Z" transform="translate(0 0)" fill="#fff" fill-rule="evenodd"/>
  </g>
</svg>
